<mxfile host="app.diagrams.net" modified="2022-10-12T13:58:17.102Z" agent="5.0 (Windows NT 10.0; Win64; x64) AppleWebKit/537.36 (KHTML, like Gecko) Chrome/106.0.0.0 Safari/537.36" etag="O5iPqoXOVdV-kh8PoXdc" version="20.3.3" type="github">
  <diagram id="He15e3YWLe-SYebc_zrN" name="Page-1">
    <mxGraphModel dx="1038" dy="1689" grid="1" gridSize="10" guides="1" tooltips="1" connect="1" arrows="1" fold="1" page="1" pageScale="1" pageWidth="850" pageHeight="1100" math="0" shadow="0">
      <root>
        <mxCell id="0" />
        <mxCell id="1" parent="0" />
        <mxCell id="zKaXvbOO1B1zrBiY8Xn6-1" value="" style="edgeStyle=orthogonalEdgeStyle;rounded=0;orthogonalLoop=1;jettySize=auto;html=1;" edge="1" parent="1" target="zKaXvbOO1B1zrBiY8Xn6-2">
          <mxGeometry relative="1" as="geometry">
            <mxPoint x="450.4000000000001" y="55" as="sourcePoint" />
          </mxGeometry>
        </mxCell>
        <mxCell id="zKaXvbOO1B1zrBiY8Xn6-10" value="" style="edgeStyle=orthogonalEdgeStyle;rounded=0;orthogonalLoop=1;jettySize=auto;html=1;" edge="1" parent="1" source="zKaXvbOO1B1zrBiY8Xn6-2" target="zKaXvbOO1B1zrBiY8Xn6-9">
          <mxGeometry relative="1" as="geometry" />
        </mxCell>
        <mxCell id="zKaXvbOO1B1zrBiY8Xn6-2" value="Update MCC with the staged image" style="whiteSpace=wrap;html=1;" vertex="1" parent="1">
          <mxGeometry x="480" y="25" width="120" height="60" as="geometry" />
        </mxCell>
        <mxCell id="zKaXvbOO1B1zrBiY8Xn6-3" value="No" style="text;html=1;align=center;verticalAlign=middle;resizable=0;points=[];autosize=1;strokeColor=none;fillColor=none;" vertex="1" parent="1">
          <mxGeometry x="440" y="25" width="40" height="30" as="geometry" />
        </mxCell>
        <mxCell id="zKaXvbOO1B1zrBiY8Xn6-5" value="Running app image same as staged?" style="rhombus;whiteSpace=wrap;html=1;" vertex="1" parent="1">
          <mxGeometry x="200" y="20" width="250" height="70" as="geometry" />
        </mxCell>
        <mxCell id="zKaXvbOO1B1zrBiY8Xn6-6" value="" style="edgeStyle=orthogonalEdgeStyle;rounded=0;orthogonalLoop=1;jettySize=auto;html=1;" edge="1" parent="1">
          <mxGeometry relative="1" as="geometry">
            <mxPoint x="324.5" y="20" as="targetPoint" />
            <mxPoint x="324.5" y="-5" as="sourcePoint" />
          </mxGeometry>
        </mxCell>
        <mxCell id="zKaXvbOO1B1zrBiY8Xn6-7" value="Reboot the radio&lt;br&gt;&quot;mcc-xterm -x boot&quot;" style="whiteSpace=wrap;html=1;" vertex="1" parent="1">
          <mxGeometry x="610.4000000000001" y="120" width="120" height="60" as="geometry" />
        </mxCell>
        <mxCell id="zKaXvbOO1B1zrBiY8Xn6-12" value="" style="edgeStyle=orthogonalEdgeStyle;rounded=0;orthogonalLoop=1;jettySize=auto;html=1;" edge="1" parent="1" source="zKaXvbOO1B1zrBiY8Xn6-9" target="zKaXvbOO1B1zrBiY8Xn6-11">
          <mxGeometry relative="1" as="geometry" />
        </mxCell>
        <mxCell id="zKaXvbOO1B1zrBiY8Xn6-13" value="" style="edgeStyle=orthogonalEdgeStyle;rounded=0;orthogonalLoop=1;jettySize=auto;html=1;" edge="1" parent="1" source="zKaXvbOO1B1zrBiY8Xn6-9" target="zKaXvbOO1B1zrBiY8Xn6-7">
          <mxGeometry relative="1" as="geometry" />
        </mxCell>
        <mxCell id="zKaXvbOO1B1zrBiY8Xn6-9" value="BASE_MODE?" style="rhombus;whiteSpace=wrap;html=1;" vertex="1" parent="1">
          <mxGeometry x="620.6" y="15" width="99.6" height="80" as="geometry" />
        </mxCell>
        <mxCell id="zKaXvbOO1B1zrBiY8Xn6-11" value="zcc_mcc_update_cim DEFAULT" style="whiteSpace=wrap;html=1;" vertex="1" parent="1">
          <mxGeometry x="740" y="25" width="120" height="60" as="geometry" />
        </mxCell>
        <mxCell id="zKaXvbOO1B1zrBiY8Xn6-14" value="" style="endArrow=classic;html=1;rounded=0;entryX=1;entryY=0.5;entryDx=0;entryDy=0;exitX=0.5;exitY=1;exitDx=0;exitDy=0;" edge="1" parent="1" source="zKaXvbOO1B1zrBiY8Xn6-11" target="zKaXvbOO1B1zrBiY8Xn6-7">
          <mxGeometry width="50" height="50" relative="1" as="geometry">
            <mxPoint x="400" y="220" as="sourcePoint" />
            <mxPoint x="450" y="170" as="targetPoint" />
          </mxGeometry>
        </mxCell>
        <mxCell id="zKaXvbOO1B1zrBiY8Xn6-15" value="Yes" style="text;html=1;align=center;verticalAlign=middle;resizable=0;points=[];autosize=1;strokeColor=none;fillColor=none;" vertex="1" parent="1">
          <mxGeometry x="670" y="90" width="40" height="30" as="geometry" />
        </mxCell>
        <mxCell id="zKaXvbOO1B1zrBiY8Xn6-17" value="No" style="text;html=1;align=center;verticalAlign=middle;resizable=0;points=[];autosize=1;strokeColor=none;fillColor=none;" vertex="1" parent="1">
          <mxGeometry x="700" y="25" width="40" height="30" as="geometry" />
        </mxCell>
        <mxCell id="zKaXvbOO1B1zrBiY8Xn6-20" value="" style="edgeStyle=orthogonalEdgeStyle;rounded=0;orthogonalLoop=1;jettySize=auto;html=1;entryX=0;entryY=0.5;entryDx=0;entryDy=0;" edge="1" parent="1" source="zKaXvbOO1B1zrBiY8Xn6-18" target="zKaXvbOO1B1zrBiY8Xn6-7">
          <mxGeometry relative="1" as="geometry" />
        </mxCell>
        <mxCell id="zKaXvbOO1B1zrBiY8Xn6-26" value="" style="edgeStyle=orthogonalEdgeStyle;rounded=0;orthogonalLoop=1;jettySize=auto;html=1;" edge="1" parent="1" source="zKaXvbOO1B1zrBiY8Xn6-18" target="zKaXvbOO1B1zrBiY8Xn6-25">
          <mxGeometry relative="1" as="geometry" />
        </mxCell>
        <mxCell id="zKaXvbOO1B1zrBiY8Xn6-18" value="Rescue mode was specified?" style="rhombus;whiteSpace=wrap;html=1;" vertex="1" parent="1">
          <mxGeometry x="200" y="115" width="250" height="70" as="geometry" />
        </mxCell>
        <mxCell id="zKaXvbOO1B1zrBiY8Xn6-19" value="Yes" style="text;html=1;align=center;verticalAlign=middle;resizable=0;points=[];autosize=1;strokeColor=none;fillColor=none;" vertex="1" parent="1">
          <mxGeometry x="440" y="110" width="40" height="30" as="geometry" />
        </mxCell>
        <mxCell id="zKaXvbOO1B1zrBiY8Xn6-23" value="" style="edgeStyle=orthogonalEdgeStyle;rounded=0;orthogonalLoop=1;jettySize=auto;html=1;" edge="1" parent="1">
          <mxGeometry relative="1" as="geometry">
            <mxPoint x="326.5" y="115" as="targetPoint" />
            <mxPoint x="326.5" y="90" as="sourcePoint" />
          </mxGeometry>
        </mxCell>
        <mxCell id="zKaXvbOO1B1zrBiY8Xn6-24" value="Yes" style="text;html=1;align=center;verticalAlign=middle;resizable=0;points=[];autosize=1;strokeColor=none;fillColor=none;" vertex="1" parent="1">
          <mxGeometry x="320" y="85" width="40" height="30" as="geometry" />
        </mxCell>
        <mxCell id="zKaXvbOO1B1zrBiY8Xn6-25" value="zcc_try_to_get_running_image_name&lt;br&gt;Remove stale images when specified" style="whiteSpace=wrap;html=1;" vertex="1" parent="1">
          <mxGeometry x="205" y="210" width="240" height="50" as="geometry" />
        </mxCell>
        <mxCell id="zKaXvbOO1B1zrBiY8Xn6-27" value="# MCC Image update" style="text;html=1;align=center;verticalAlign=middle;resizable=0;points=[];autosize=1;strokeColor=none;fillColor=none;" vertex="1" parent="1">
          <mxGeometry x="320" y="-10" width="140" height="30" as="geometry" />
        </mxCell>
        <mxCell id="zKaXvbOO1B1zrBiY8Xn6-28" value="# MCC CIM config update" style="text;html=1;align=center;verticalAlign=middle;resizable=0;points=[];autosize=1;strokeColor=none;fillColor=none;" vertex="1" parent="1">
          <mxGeometry x="320" y="260" width="160" height="30" as="geometry" />
        </mxCell>
        <mxCell id="zKaXvbOO1B1zrBiY8Xn6-29" value="" style="endArrow=classic;html=1;rounded=0;exitX=0.5;exitY=1;exitDx=0;exitDy=0;" edge="1" parent="1" source="zKaXvbOO1B1zrBiY8Xn6-7">
          <mxGeometry width="50" height="50" relative="1" as="geometry">
            <mxPoint x="400" y="220" as="sourcePoint" />
            <mxPoint x="450" y="240" as="targetPoint" />
          </mxGeometry>
        </mxCell>
        <mxCell id="zKaXvbOO1B1zrBiY8Xn6-34" value="" style="edgeStyle=orthogonalEdgeStyle;rounded=0;orthogonalLoop=1;jettySize=auto;html=1;" edge="1" parent="1" source="zKaXvbOO1B1zrBiY8Xn6-30" target="zKaXvbOO1B1zrBiY8Xn6-33">
          <mxGeometry relative="1" as="geometry" />
        </mxCell>
        <mxCell id="zKaXvbOO1B1zrBiY8Xn6-30" value="IF ZCC_MCC_CIM_TEMP&lt;br&gt;template exists?" style="rhombus;whiteSpace=wrap;html=1;" vertex="1" parent="1">
          <mxGeometry x="200" y="290" width="250" height="70" as="geometry" />
        </mxCell>
        <mxCell id="zKaXvbOO1B1zrBiY8Xn6-32" value="" style="endArrow=classic;html=1;rounded=0;exitX=0.5;exitY=1;exitDx=0;exitDy=0;entryX=0.5;entryY=0;entryDx=0;entryDy=0;" edge="1" parent="1" source="zKaXvbOO1B1zrBiY8Xn6-25" target="zKaXvbOO1B1zrBiY8Xn6-30">
          <mxGeometry width="50" height="50" relative="1" as="geometry">
            <mxPoint x="400" y="210" as="sourcePoint" />
            <mxPoint x="450" y="160" as="targetPoint" />
          </mxGeometry>
        </mxCell>
        <mxCell id="zKaXvbOO1B1zrBiY8Xn6-33" value="zcc_mcc_exit 0" style="whiteSpace=wrap;html=1;" vertex="1" parent="1">
          <mxGeometry x="480" y="295" width="120" height="60" as="geometry" />
        </mxCell>
        <mxCell id="zKaXvbOO1B1zrBiY8Xn6-35" value="No" style="text;html=1;align=center;verticalAlign=middle;resizable=0;points=[];autosize=1;strokeColor=none;fillColor=none;" vertex="1" parent="1">
          <mxGeometry x="440" y="295" width="40" height="30" as="geometry" />
        </mxCell>
        <mxCell id="zKaXvbOO1B1zrBiY8Xn6-37" value="Yes" style="text;html=1;align=center;verticalAlign=middle;resizable=0;points=[];autosize=1;strokeColor=none;fillColor=none;" vertex="1" parent="1">
          <mxGeometry x="320" y="360" width="40" height="30" as="geometry" />
        </mxCell>
        <mxCell id="zKaXvbOO1B1zrBiY8Xn6-38" value="" style="edgeStyle=orthogonalEdgeStyle;rounded=0;orthogonalLoop=1;jettySize=auto;html=1;" edge="1" parent="1" source="zKaXvbOO1B1zrBiY8Xn6-39" target="zKaXvbOO1B1zrBiY8Xn6-41">
          <mxGeometry relative="1" as="geometry" />
        </mxCell>
        <mxCell id="zKaXvbOO1B1zrBiY8Xn6-39" value="is GPS available in .csv fiel?" style="rhombus;whiteSpace=wrap;html=1;" vertex="1" parent="1">
          <mxGeometry x="200" y="390" width="250" height="70" as="geometry" />
        </mxCell>
        <mxCell id="zKaXvbOO1B1zrBiY8Xn6-40" value="" style="endArrow=classic;html=1;rounded=0;exitX=0.5;exitY=1;exitDx=0;exitDy=0;entryX=0.5;entryY=0;entryDx=0;entryDy=0;" edge="1" parent="1" target="zKaXvbOO1B1zrBiY8Xn6-39">
          <mxGeometry width="50" height="50" relative="1" as="geometry">
            <mxPoint x="325" y="360" as="sourcePoint" />
            <mxPoint x="450" y="260" as="targetPoint" />
          </mxGeometry>
        </mxCell>
        <mxCell id="zKaXvbOO1B1zrBiY8Xn6-41" value="get_gps_coords0" style="whiteSpace=wrap;html=1;" vertex="1" parent="1">
          <mxGeometry x="480" y="395" width="120" height="60" as="geometry" />
        </mxCell>
        <mxCell id="zKaXvbOO1B1zrBiY8Xn6-42" value="No" style="text;html=1;align=center;verticalAlign=middle;resizable=0;points=[];autosize=1;strokeColor=none;fillColor=none;" vertex="1" parent="1">
          <mxGeometry x="440" y="395" width="40" height="30" as="geometry" />
        </mxCell>
        <mxCell id="zKaXvbOO1B1zrBiY8Xn6-43" value="Yes" style="text;html=1;align=center;verticalAlign=middle;resizable=0;points=[];autosize=1;strokeColor=none;fillColor=none;" vertex="1" parent="1">
          <mxGeometry x="320" y="460" width="40" height="30" as="geometry" />
        </mxCell>
        <mxCell id="zKaXvbOO1B1zrBiY8Xn6-44" value="" style="edgeStyle=orthogonalEdgeStyle;rounded=0;orthogonalLoop=1;jettySize=auto;html=1;" edge="1" parent="1" source="zKaXvbOO1B1zrBiY8Xn6-45" target="zKaXvbOO1B1zrBiY8Xn6-47">
          <mxGeometry relative="1" as="geometry" />
        </mxCell>
        <mxCell id="zKaXvbOO1B1zrBiY8Xn6-50" value="" style="edgeStyle=orthogonalEdgeStyle;rounded=0;orthogonalLoop=1;jettySize=auto;html=1;" edge="1" parent="1" source="zKaXvbOO1B1zrBiY8Xn6-45" target="zKaXvbOO1B1zrBiY8Xn6-49">
          <mxGeometry relative="1" as="geometry" />
        </mxCell>
        <mxCell id="zKaXvbOO1B1zrBiY8Xn6-45" value="is GPS available in .csv fiel?" style="rhombus;whiteSpace=wrap;html=1;" vertex="1" parent="1">
          <mxGeometry x="200" y="490" width="250" height="70" as="geometry" />
        </mxCell>
        <mxCell id="zKaXvbOO1B1zrBiY8Xn6-46" value="" style="endArrow=classic;html=1;rounded=0;exitX=0.5;exitY=1;exitDx=0;exitDy=0;entryX=0.5;entryY=0;entryDx=0;entryDy=0;" edge="1" parent="1" target="zKaXvbOO1B1zrBiY8Xn6-45">
          <mxGeometry width="50" height="50" relative="1" as="geometry">
            <mxPoint x="325" y="460" as="sourcePoint" />
            <mxPoint x="450" y="360" as="targetPoint" />
          </mxGeometry>
        </mxCell>
        <mxCell id="zKaXvbOO1B1zrBiY8Xn6-47" value="get_gps_coords0" style="whiteSpace=wrap;html=1;" vertex="1" parent="1">
          <mxGeometry x="480" y="495" width="120" height="60" as="geometry" />
        </mxCell>
        <mxCell id="zKaXvbOO1B1zrBiY8Xn6-48" value="No" style="text;html=1;align=center;verticalAlign=middle;resizable=0;points=[];autosize=1;strokeColor=none;fillColor=none;" vertex="1" parent="1">
          <mxGeometry x="440" y="495" width="40" height="30" as="geometry" />
        </mxCell>
        <mxCell id="zKaXvbOO1B1zrBiY8Xn6-49" value="Generate CIM script and output to&lt;br&gt;&amp;nbsp;${cfg_tmp}" style="whiteSpace=wrap;html=1;" vertex="1" parent="1">
          <mxGeometry x="200" y="580" width="250" height="40" as="geometry" />
        </mxCell>
      </root>
    </mxGraphModel>
  </diagram>
</mxfile>
